<?xml version="1.0" encoding="UTF-8" standalone="no"?>
<svg
   xmlns:dc="http://purl.org/dc/elements/1.1/"
   xmlns:cc="http://creativecommons.org/ns#"
   xmlns:rdf="http://www.w3.org/1999/02/22-rdf-syntax-ns#"
   xmlns:svg="http://www.w3.org/2000/svg"
   xmlns="http://www.w3.org/2000/svg"
   xmlns:sodipodi="http://sodipodi.sourceforge.net/DTD/sodipodi-0.dtd"
   xmlns:inkscape="http://www.inkscape.org/namespaces/inkscape"
   width="256"
   height="256"
   version="1.1"
   id="svg6"
   sodipodi:docname="logo.svg"
   inkscape:version="0.92.2 5c3e80d, 2017-08-06">
  <metadata
     id="metadata12">
    <rdf:RDF>
      <cc:Work
         rdf:about="">
        <dc:format>image/svg+xml</dc:format>
        <dc:type
           rdf:resource="http://purl.org/dc/dcmitype/StillImage" />
      </cc:Work>
    </rdf:RDF>
  </metadata>
  <defs
     id="defs10" />
  <sodipodi:namedview
     pagecolor="#ffffff"
     bordercolor="#666666"
     borderopacity="1"
     objecttolerance="10"
     gridtolerance="10"
     guidetolerance="10"
     inkscape:pageopacity="0"
     inkscape:pageshadow="2"
     inkscape:window-width="1280"
     inkscape:window-height="800"
     id="namedview8"
     showgrid="false"
     inkscape:zoom="0.921875"
     inkscape:cx="128"
     inkscape:cy="128"
     inkscape:window-x="0"
     inkscape:window-y="0"
     inkscape:window-maximized="0"
     inkscape:current-layer="svg6" />
  <path
     style="fill:#59c956;stroke-width:1.0837996"
     d="m 206.02295,81.876434 c -2.99677,5.16e-4 -6.90921,0.01237 -12.06146,0.03043 -19.33245,0.06818 -21.39061,0.117989 -22.14796,0.535246 -1.68528,0.928552 -1.61162,-0.08991 -1.76111,24.39638 -0.14944,24.48635 -0.0758,23.46786 -1.76109,24.3964 -0.7663,0.42222 -3.98453,0.47206 -39.14173,0.5981 l -38.308576,0.13584 -0.770616,0.57581 c -0.424298,0.31653 -0.92698,1.04356 -1.117583,1.61589 -0.276332,0.8288 -0.330784,11.27825 -0.268296,51.3352 l 0.07867,50.29309 0.609221,2.27884 c 2.408911,9.02015 8.382633,13.21444 20.55833,14.42944 0.52606,0.0525 2.46373,0.11365 4.30494,0.13786 l 3.34669,0.0447 v -3.52776 -3.5278 l -4.30291,-0.17841 c -6.40644,-0.26792 -9.01436,-0.97423 -11.01245,-2.98238 -1.18943,-1.19541 -1.92687,-2.94434 -2.10605,-4.99566 -0.14222,-1.62818 -0.1307,-1.6657 0.37118,-1.23066 0.92751,0.804 2.65855,1.53451 5.06141,2.13693 6.07743,1.52368 18.54151,2.22938 30.36849,1.71929 12.55261,-0.54141 18.63039,-1.51821 21.35918,-3.43452 l 0.79482,-0.55754 -0.17954,1.31379 c -0.23478,1.72148 -1.40226,3.84229 -2.67292,4.85374 -2.50434,1.99345 -6.17721,2.91062 -12.74331,3.18309 l -4.16774,0.17233 v 3.57037 3.56831 l 5.26112,-0.16826 c 8.07198,-0.25721 12.77899,-1.14897 17.09866,-3.24191 3.04794,-1.4768 5.58185,-3.96186 6.96977,-6.83457 2.08606,-4.31767 2.36522,-6.8116 2.36832,-21.18692 0.002,-11.80897 -0.32851,-19.78774 -0.94611,-22.79267 -0.7726,-3.75904 -2.42368,-5.81914 -5.46487,-6.82036 -2.94953,-0.97104 -5.043,-1.14691 -15.8782,-1.34015 -9.49805,-0.16938 -10.75802,-0.24452 -11.40583,-0.67109 -0.40049,-0.26375 -0.80618,-0.79121 -0.90173,-1.17391 -0.2822,-1.13009 0.0342,-3.67769 0.51644,-4.16234 0.7136,-0.71722 2.61963,-0.81277 17.41133,-0.87993 7.74058,-0.0351 24.83434,-0.16759 37.9858,-0.29398 23.09484,-0.22194 23.97385,-0.24877 25.70851,-0.79883 9.75952,-3.0946 16.63148,-18.46077 18.31508,-40.9526 0.40395,-5.39647 0.17204,-18.08472 -0.41958,-22.93256 -2.48653,-20.374571 -8.93931,-33.396203 -17.90559,-36.133358 -1.29804,-0.396243 -2.05242,-0.504359 -11.04271,-0.502788 z M 149.57478,200.8618 c 0.43127,-0.0191 0.86297,-0.0163 1.29311,0.008 4.42418,0.25119 8.69088,2.78068 10.79458,7.24409 0.82013,1.7401 0.8755,2.04676 0.8755,4.89225 0,2.95439 -0.0287,3.09166 -1.0268,5.12137 -1.70868,3.47468 -4.91541,5.99672 -8.61993,6.77981 -1.99507,0.42175 -3.969,0.36085 -6.06806,-0.19058 -9.03852,-2.37444 -12.15059,-13.52089 -5.6222,-20.13467 2.35341,-2.38421 5.35496,-3.58761 8.3738,-3.72039 z m -40.8423,0.60215 c 7.43217,-0.25362 13.87304,6.52259 12.69085,13.90026 -0.74144,4.62708 -3.89344,8.313 -8.40812,9.82909 -2.17902,0.73178 -5.57843,0.74955 -7.78477,0.0405 -8.082707,-2.59737 -11.281148,-11.95815 -6.374677,-18.65665 2.062057,-2.8152 4.685257,-4.36928 8.379887,-4.96728 0.50231,-0.0812 1.00135,-0.12905 1.49683,-0.14597 z"
     id="path2"
     inkscape:connector-curvature="0" />
  <path
     style="fill:#a256c9;stroke-width:1.0837996"
     d="m 114.30427,5.4068407 -5.26112,0.1702987 c -8.14721,0.2649514 -13.703588,1.3789772 -17.828927,3.5744117 -2.426729,1.2914669 -5.035255,4.0086189 -6.241531,6.5020639 -2.056318,4.25051 -2.364328,7.028339 -2.362263,21.286258 0.0018,11.812987 0.310881,19.211501 0.942082,22.527081 0.732307,3.846686 2.394662,5.97186 5.464866,6.990666 2.84342,0.943533 5.444974,1.160464 16.144473,1.342175 9.28533,0.157683 10.47499,0.226556 11.13149,0.658934 0.89575,0.589922 1.12084,1.400508 0.95417,3.420309 -0.16861,2.043611 -0.6808,2.458159 -3.28619,2.651914 -1.08877,0.08109 -18.766646,0.268231 -39.282925,0.415644 -36.501079,0.26224 -37.339894,0.280147 -39.097335,0.833266 -9.19329,2.893484 -15.757749,16.524291 -18.064949,37.514038 -0.479741,4.3622 -0.486353,20.27484 -0.01005,24.71874 2.240261,20.90312 8.671006,34.54304 17.758304,37.6722 l 1.837765,0.63459 21.454019,-0.0649 c 23.385267,-0.0708 22.382051,-4e-4 23.386579,-1.66861 0.501215,-0.83238 0.530827,-1.8175 0.661681,-23.2529 0.149464,-24.48637 0.07584,-23.46785 1.761106,-24.3964 0.766288,-0.42222 3.984512,-0.47205 39.141725,-0.5981 l 38.30656,-0.13583 0.77262,-0.57581 c 0.42429,-0.31628 0.91803,-0.9959 1.09742,-1.51045 0.44114,-1.26533 0.50281,-98.011423 0.0645,-101.232954 -0.6521,-4.793199 -2.89481,-9.495682 -5.66862,-11.891035 -3.88898,-3.3583406 -9.83198,-5.0928003 -18.57533,-5.4193743 l -4.44815,-0.166267 0.0767,3.543998 0.0767,3.5439973 4.28878,0.196659 c 7.8323,0.358849 10.88813,1.665104 12.39834,5.297751 0.35594,0.856196 0.97191,4.25563 0.77061,4.25563 -0.0436,0 -0.53336,-0.307474 -1.08732,-0.685283 -4.0462,-2.759643 -19.29364,-4.236013 -35.77284,-3.462898 -11.67776,0.547861 -17.929807,1.586251 -20.461496,3.398025 l -0.804905,0.577814 0.179548,-1.315815 c 0.217131,-1.592177 1.366878,-3.802658 2.461106,-4.728038 2.61395,-2.210566 7.740737,-3.395981 14.692007,-3.395981 h 2.43086 V 9.0197336 Z m 29.06328,26.9955883 c 1.9175,-0.02173 3.87153,0.297397 5.2228,0.922487 2.36426,1.093711 4.28872,2.660238 5.47496,4.456353 4.42204,6.695625 1.40754,15.588565 -6.17093,18.206559 -0.81453,0.281373 -2.27896,0.579835 -3.25592,0.662978 -6.50117,0.553487 -12.29708,-3.902082 -13.40095,-10.303535 -1.00822,-5.84672 2.97301,-11.928203 8.85798,-13.52922 0.9847,-0.267875 2.12155,-0.402641 3.27206,-0.415622 z m -40.89275,0.604172 c 4.51469,-0.03474 9.01444,2.246744 11.24646,6.862955 3.46741,7.171181 -0.75208,15.573142 -8.65421,17.22933 -5.716567,1.198107 -11.569842,-1.731018 -14.072707,-7.041374 -0.820142,-1.740095 -0.875514,-2.046763 -0.875514,-4.892248 0,-2.954387 0.02668,-3.091638 1.024791,-5.121365 2.287168,-4.651066 6.816513,-7.002464 11.33118,-7.037298 z"
     id="path4"
     inkscape:connector-curvature="0" />
</svg>
